:version 1.10
:name ASF
:units
  mass 1
  length 1
  angle deg
:documentation
  ASF file generated by Kaydara
:root
  axis xyz
  order  tx ty tz rx ry rz
  position 0 0 0
  orientation 0 0 0
:bonedata
  begin
    id 1
    name lfemurDummy
    direction 0.61522 -0.761478 0.204097
    length 5.68318
    axis 0 -0 0 xyz
  end
  begin
    id 2
    name lfemur
    direction 0.34202 -0.939693 -5.84747e-008
    length 16.9147
    axis 0 -0 20 xyz
    dof rx ry rz
    limits( -inf , inf )
( -inf , inf )
( -inf , inf )

  end
  begin
    id 3
    name ltibia
    direction 0.34202 -0.939693 1.20839e-009
    length 18.0532
    axis 0 -0 20 xyz
    dof rz ry rx
    limits( -inf , inf )
( -inf , inf )
( -inf , inf )

  end
  begin
    id 4
    name lfoot
    direction 0.0841971 -0.23133 0.969225
    length 5.23822
    axis -90 7.62852e-016 20 xyz
    dof ry rx rz
    limits( -inf , inf )
( -inf , inf )
( -inf , inf )

  end
  begin
    id 5
    name ltoes
    direction 0 0 0
    length 0
    axis 0 0 0 xyz
    dof rz ry rx
    limits( -inf , inf )
( -inf , inf )
( -inf , inf )

  end
  begin
    id 6
    name rfemurDummy
    direction -0.625247 -0.75382 0.202044
    length 5.74091
    axis 0 -0 0 xyz
  end
  begin
    id 7
    name rfemur
    direction -0.34202 -0.939693 -1.47013e-008
    length 16.4922
    axis 0 -0 -20 xyz
    dof rx ry rz
    limits( -inf , inf )
( -inf , inf )
( -inf , inf )

  end
  begin
    id 8
    name rtibia
    direction -0.34202 -0.939693 -7.74345e-010
    length 18.2421
    axis 0 -0 -20 xyz
    dof rz ry rx
    limits( -inf , inf )
( -inf , inf )
( -inf , inf )

  end
  begin
    id 9
    name rfoot
    direction -0.124331 -0.341598 0.931586
    length 5.45787
    axis -90 -7.62852e-016 -20 xyz
    dof ry rx rz
    limits( -inf , inf )
( -inf , inf )
( -inf , inf )

  end
  begin
    id 10
    name rtoes
    direction 0 0 0
    length 0
    axis 0 0 0 xyz
    dof rz ry rx
    limits( -inf , inf )
( -inf , inf )
( -inf , inf )

  end
  begin
    id 11
    name lowerbackDummy
    direction 0 0 0
    length 0
    axis 0 -0 0 xyz
  end
  begin
    id 12
    name lowerback
    direction -0.0218484 0.994884 -0.0986304
    length 4.45607
    axis 0 -0 0 xyz
    dof rx ry rz
    limits( -inf , inf )
( -inf , inf )
( -inf , inf )

  end
  begin
    id 13
    name upperback
    direction -0.00973057 0.999717 -0.0217111
    length 4.47449
    axis 0 -0 0 xyz
    dof rx ry rz
    limits( -inf , inf )
( -inf , inf )
( -inf , inf )

  end
  begin
    id 14
    name thorax
    direction -0.000928171 0.999699 0.0245198
    length 4.50973
    axis 0 -0 0 xyz
    dof rx ry rz
    limits( -inf , inf )
( -inf , inf )
( -inf , inf )

  end
  begin
    id 15
    name rclavicle
    direction -0.9009 0.425937 -0.0834055
    length 7.28587
    axis 0 -0 0 xyz
    dof rx ry rz
    limits( -inf , inf )
( -inf , inf )
( -inf , inf )

  end
  begin
    id 16
    name rhumerus
    direction -1 -2.23604e-007 -1.42637e-007
    length 13.5704
    axis 180 30 90 xyz
    dof rx ry rz
    limits( -inf , inf )
( -inf , inf )
( -inf , inf )

  end
  begin
    id 17
    name rradius
    direction -1 5.68281e-008 -4.4952e-007
    length 8.06782
    axis 180 30 90 xyz
    dof rz ry rx
    limits( -inf , inf )
( -inf , inf )
( -inf , inf )

  end
  begin
    id 18
    name rwrist
    direction -1 1.51393e-007 1.38143e-007
    length 4.03391
    axis -90 -90 0 xyz
    dof rz rx ry
    limits( -inf , inf )
( -inf , inf )
( -inf , inf )

  end
  begin
    id 19
    name rthumb
    direction 0 0 0
    length 0
    axis 0 0 0 xyz
    dof ry rx rz
    limits( -inf , inf )
( -inf , inf )
( -inf , inf )

  end
  begin
    id 20
    name rhand
    direction -1 -3.34077e-007 -5.59631e-007
    length 1.29744
    axis -90 -90 0 xyz
    dof ry rx rz
    limits( -inf , inf )
( -inf , inf )
( -inf , inf )

  end
  begin
    id 21
    name rfingers
    direction 0 0 0
    length 0
    axis 0 0 0 xyz
    dof rz ry rx
    limits( -inf , inf )
( -inf , inf )
( -inf , inf )

  end
  begin
    id 22
    name lclavicle
    direction 0.940017 0.332249 -0.0773232
    length 8.29589
    axis 0 -0 0 xyz
    dof rx ry rz
    limits( -inf , inf )
( -inf , inf )
( -inf , inf )

  end
  begin
    id 23
    name lhumerus
    direction 1 7.41158e-008 -1.44768e-008
    length 12.0042
    axis 180 -30 -90 xyz
    dof rx ry rz
    limits( -inf , inf )
( -inf , inf )
( -inf , inf )

  end
  begin
    id 24
    name lradius
    direction 1 -1.32972e-007 3.10821e-007
    length 8.1902
    axis 180 -30 -90 xyz
    dof rz ry rx
    limits( -inf , inf )
( -inf , inf )
( -inf , inf )

  end
  begin
    id 25
    name lwrist
    direction 1 3.08957e-007 4.01394e-007
    length 4.09509
    axis -90 90 0 xyz
    dof rz rx ry
    limits( -inf , inf )
( -inf , inf )
( -inf , inf )

  end
  begin
    id 26
    name lthumb
    direction 0 0 0
    length 0
    axis 0 0 0 xyz
    dof ry rx rz
    limits( -inf , inf )
( -inf , inf )
( -inf , inf )

  end
  begin
    id 27
    name lhand
    direction 1 -1.64125e-007 -6.99514e-007
    length 1.37229
    axis -90 90 0 xyz
    dof ry rx rz
    limits( -inf , inf )
( -inf , inf )
( -inf , inf )

  end
  begin
    id 28
    name lfingers
    direction 0 0 0
    length 0
    axis 0 0 0 xyz
    dof rz ry rx
    limits( -inf , inf )
( -inf , inf )
( -inf , inf )

  end
  begin
    id 29
    name lowerneck
    direction -0.030798 0.998024 0.0547665
    length 3.93918
    axis 0 -0 0 xyz
    dof rx ry rz
    limits( -inf , inf )
( -inf , inf )
( -inf , inf )

  end
  begin
    id 30
    name upperneck
    direction 0.0531588 0.996611 -0.0627736
    length 3.95491
    axis 0 -0 0 xyz
    dof rx ry rz
    limits( -inf , inf )
( -inf , inf )
( -inf , inf )

  end
  begin
    id 31
    name head
    direction 0 0 0
    length 0
    axis 0 0 0 xyz
    dof rx ry rz
    limits( -inf , inf )
( -inf , inf )
( -inf , inf )

  end
:hierarchy
  begin
    root lfemurDummy rfemurDummy lowerbackDummy
    lfemurDummy lfemur
    lfemur ltibia
    ltibia lfoot
    lfoot ltoes
    rfemurDummy rfemur
    rfemur rtibia
    rtibia rfoot
    rfoot rtoes
    lowerbackDummy lowerback
    lowerback upperback
    upperback thorax
    thorax rclavicle lclavicle lowerneck
    rclavicle rhumerus
    rhumerus rradius
    rradius rwrist
    rwrist rthumb rhand
    rhand rfingers
    lclavicle lhumerus
    lhumerus lradius
    lradius lwrist
    lwrist lthumb lhand
    lhand lfingers
    lowerneck upperneck
    upperneck head
  end

:SAMPLES-PER-SECOND 30
:FULLY-SPECIFIED
:DEGREES
48
root  2.6827555 35.9482232 10.42884466 4.593994141 -4.582000732 -2.986999512
lowerback  12.43980026 1.021559954 -6.73484993
upperback  2.632100105 0.3626779914 -2.274100065
thorax  -4.231750011 0.2406489998 1.352290034
lowerneck  -4.951069832 3.063689947 -10.27690029
upperneck  8.112879753 3.866300106 13.59399986
head  2.703429937 2.172389984 5.993130207
lclavicle  0 -9.442270133e-015 7.951389973e-016
lhumerus  19.17429924 -12.28919983 73.50019836
lradius  2.151470329e-031 -2.800003475e-031 127.538002
lwrist  -7.062250077e-031 1.765562519e-031 17.9265995
lhand  -1.496451383e-031 -27.76390076 20.11240005
lfingers  90 7.125020027 -90
lthumb  89.89689403 5.08795885 91.16245106
rclavicle  0 -9.442270133e-015 7.951389973e-016
rhumerus  -37.55659866 -0.6778920293 -43.89820099
rradius  -2.143300041e-031 2.806262456e-031 127.3710022
rwrist  7.062250077e-031 -1.765562519e-031 -10.09230042
rhand  -7.920061211e-032 -33.2840004 9.303460121
rfingers  -90 -7.125020027 -90
rthumb  -92.93752616 -24.25625642 -97.11982154
rfemur  4.696040154 6.885930061 24.82550049
rtibia  -0 0 56.86019897
rfoot  -4.733073232e-032 -7.755869865 0.154787004
rtoes  5.373923086 19.29304026 -105.8922705
lfemur  -57.89189911 -13.02130032 0.8822020292
ltibia  -0 0 59.50970078
lfoot  -0 3.07404995 -18.90209961
ltoes  -4.250644065 -19.5611806 -102.515957
49
root  2.427333359 36.04355459 10.43648908 5.175994873 -2.662002563 -2.712997437
lowerback  12.25520039 1.661200047 -7.064139843
upperback  2.602190018 1.149629951 -2.932199955
thorax  -4.211209774 0.6295499802 0.7208529711
lowerneck  -3.656120062 2.666179895 -10.87860012
upperneck  7.27339983 3.283679962 14.3817997
head  2.282870054 1.847239971 6.287940025
lclavicle  0 -9.442270133e-015 7.951389973e-016
lhumerus  20.41699982 -11.86569977 72.41829681
lradius  2.105691023e-031 -2.834591567e-031 126.6070023
lwrist  0 -0 17.65119934
lhand  -1.496451383e-031 -27.76390076 20.11240005
lfingers  90 7.125020027 -90
lthumb  89.89689403 5.08795885 91.16245106
rclavicle  0 -9.442270133e-015 7.951389973e-016
rhumerus  -33.77870178 -1.945299983 -39.72510147
rradius  -2.090621633e-031 2.845724025e-031 126.3030014
rwrist  7.062250077e-031 -0 -10.28540039
rhand  -7.920061211e-032 -33.2840004 9.303460121
rfingers  -90 -7.125020027 -90
rthumb  -92.93752616 -24.25625642 -97.11982154
rfemur  4.215040207 5.518809795 25.10219955
rtibia  -0 0 56.27949905
rfoot  -5.042517904e-032 -10.01739979 -0.5124199986
rtoes  5.373923086 19.29304026 -105.8922705
lfemur  -58.59059906 -12.96819973 0.3823249936
ltibia  -0 0 58.53290176
lfoot  -0 4.031949997 -19.1208992
ltoes  -4.250644065 -19.5611806 -102.515957
50
root  2.188339947 36.16044352 10.41571099 5.774002075 -0.8820037842 -2.423995972
lowerback  12.24730015 2.264130116 -6.921090126
upperback  2.600359917 1.923410058 -3.816450119
thorax  -4.224150181 1.006510019 -0.4131560028
lowerneck  -2.523159981 2.292659998 -11.32479954
upperneck  6.610620022 2.720860004 15.17179966
head  1.949970007 1.53599 6.575789928
lclavicle  0 -9.442270133e-015 7.951389973e-016
lhumerus  21.63540077 -11.37440014 71.0460968
lradius  2.069056284e-031 -2.861441967e-031 125.8700027
lwrist  -7.062250077e-031 -0 17.99370003
lhand  -1.496451383e-031 -27.76390076 20.11240005
lfingers  90 7.125020027 -90
lthumb  89.89689403 5.08795885 91.16245106
rclavicle  0 -9.442270133e-015 7.951389973e-016
rhumerus  -29.81669998 -3.511039972 -36.04180145
rradius  -2.01171713e-031 2.902040356e-031 124.7300034
rwrist  7.062250077e-031 -0 -10.39760017
rhand  -7.920061211e-032 -33.2840004 9.303460121
rfingers  -90 -7.125020027 -90
rthumb  -92.93752616 -24.25625642 -97.11982154
rfemur  3.635960102 4.184390068 25.29400063
rtibia  -0 0 55.64709854
rfoot  -6.772026339e-032 -12.12880039 -2.014199972
rtoes  5.373923086 19.29304026 -105.8922705
lfemur  -59.17470169 -12.86520004 -0.1493999958
ltibia  -0 0 57.44480133
lfoot  -0 5.077539921 -19.0821991
ltoes  -4.250644065 -19.5611806 -102.515957
51
root  1.963493392 36.28155566 10.37444468 6.526992798 0.8040008545 -2.160995483
lowerback  12.1164999 2.776910067 -6.694240093
upperback  2.707079887 2.620510101 -4.517910004
thorax  -4.027560234 1.341670036 -1.38041997
lowerneck  -1.816580057 1.93611002 -12.04679966
upperneck  6.214179993 2.215699911 15.72049999
head  1.766440034 1.253859997 6.855219841
lclavicle  0 -9.442270133e-015 7.951389973e-016
lhumerus  22.78269958 -10.56779957 70.00469971
lradius  2.02405727e-031 -2.893447114e-031 124.973999
lwrist  -7.062250077e-031 8.827812596e-032 18.48489952
lhand  -1.496451383e-031 -27.76390076 20.11240005
lfingers  90 7.125020027 -90
lthumb  89.89689403 5.08795885 91.16245106
rclavicle  0 -9.442270133e-015 7.951389973e-016
rhumerus  -25.20949936 -5.10766983 -32.31119919
rradius  -1.897064298e-031 2.978253026e-031 122.4960022
rwrist  1.412450015e-030 -1.765562519e-031 -10.40719986
rhand  -7.920061211e-032 -33.2840004 9.303460121
rfingers  -90 -7.125020027 -90
rthumb  -92.93752616 -24.25625642 -97.11982154
rfemur  2.871550083 2.813679934 25.40609932
rtibia  -0 0 54.98139954
rfoot  -4.544883923e-032 -13.7887001 -3.957149982
rtoes  5.373923086 19.29304026 -105.8922705
lfemur  -59.81579971 -12.68519974 -0.6140589714
ltibia  -0 0 56.21070099
lfoot  -0 6.410870075 -19.29640007
ltoes  -4.250644065 -19.5611806 -102.515957
52
root  1.75127326 36.40555434 10.32586661 7.283996582 2.365005493 -1.996994019
lowerback  11.71759987 3.177710056 -6.368440151
upperback  3.073610067 3.243659973 -4.983570099
thorax  -3.393490076 1.635139942 -2.11093998
lowerneck  -1.584550023 1.640239954 -12.98869991
upperneck  6.019480228 1.835049987 15.94340038
head  1.712800026 1.039569974 7.082890034
lclavicle  0 -9.442270133e-015 7.951389973e-016
lhumerus  24.03230095 -9.273880005 69.2233963
lradius  1.968904992e-031 -2.931255221e-031 123.8889999
lwrist  -1.412450015e-030 -0 19.31030083
lhand  -1.496451383e-031 -27.76390076 20.11240005
lfingers  90 7.125020027 -90
lthumb  89.89689403 5.08795885 91.16245106
rclavicle  0 -9.442270133e-015 7.951389973e-016
rhumerus  -19.56809998 -6.812799931 -28.71050072
rradius  -1.724145671e-031 3.08158494e-031 119.2269974
rwrist  1.412450015e-030 -0 -9.822939873
rhand  -7.920061211e-032 -33.2840004 9.303460121
rfingers  -90 -7.125020027 -90
rthumb  -92.93752616 -24.25625642 -97.11982154
rfemur  2.127219915 1.517799973 25.55590057
rtibia  -0 0 54.354599
rfoot  -9.139159993e-032 -14.99849987 -5.864200115
rtoes  5.373923086 19.29304026 -105.8922705
lfemur  -60.38249969 -12.4527998 -0.9692829847
ltibia  -0 0 54.90240097
lfoot  -0 7.836369991 -19.75989914
ltoes  -4.250644065 -19.5611806 -102.515957
53
root  1.542880028 36.53711034 10.26613356 7.927001953 3.776992798 -1.873001099
lowerback  11.4939003 3.708120108 -5.638279915
upperback  3.330780029 4.053500175 -5.665820122
thorax  -2.909460068 2.031709909 -3.325670004
lowerneck  -0.5787659883 1.345049977 -13.02880001
upperneck  5.619569778 1.371449947 15.88739967
head  1.497550011 0.7656570077 7.051909924
lclavicle  0 -9.442270133e-015 7.951389973e-016
lhumerus  25.04560089 -8.656419754 68.38169861
lradius  1.912321404e-031 -2.968479558e-031 122.7900009
lwrist  0 -0 20.3314991
lhand  -1.496451383e-031 -27.76390076 20.11240005
lfingers  90 7.125020027 -90
lthumb  89.89689403 5.08795885 91.16245106
rclavicle  0 -9.442270133e-015 7.951389973e-016
rhumerus  -14.31980038 -8.701160431 -25.66430092
rradius  -1.497566434e-031 3.197833456e-031 115.0940018
rwrist  7.062250077e-031 -0 -8.738069534
rhand  -7.920061211e-032 -33.2840004 9.303460121
rfingers  -90 -7.125020027 -90
rthumb  -92.93752616 -24.25625642 -97.11982154
rfemur  1.455760002 0.3636299968 25.73570061
rtibia  -0 0 53.7969017
rfoot  -0 -16.09639931 -7.664830208
rtoes  5.373923086 19.29304026 -105.8922705
lfemur  -60.75059891 -12.21179962 -1.273419976
ltibia  -0 0 53.5082016
lfoot  -0 9.624569893 -19.7439003
ltoes  -4.250644065 -19.5611806 -102.515957
54
root  1.337013376 36.67333408 10.19453364 8.408996582 5.082000732 -1.841995239
lowerback  11.69740009 3.974519968 -4.890220165
upperback  3.413810015 4.467989922 -6.188139915
thorax  -2.827939987 2.242000103 -4.363470078
lowerneck  0.4741129875 1.350839972 -13.11970043
upperneck  5.465429783 1.296079993 15.63199997
head  1.289350033 0.6805269718 6.973060131
lclavicle  0 -9.442270133e-015 7.951389973e-016
lhumerus  25.0583992 -7.469970226 67.67209625
lradius  1.876486929e-031 -2.991260745e-031 122.1009979
lwrist  0 -0 21.3560009
lhand  -1.496451383e-031 -27.76390076 20.11240005
lfingers  90 7.125020027 -90
lthumb  89.89689403 5.08795885 91.16245106
rclavicle  0 -9.442270133e-015 7.951389973e-016
rhumerus  -8.316140175 -10.07820034 -23.42770004
rradius  -1.201343201e-031 3.320484686e-031 109.8899994
rwrist  7.062250077e-031 -1.765562519e-031 -7.933939934
rhand  -7.920061211e-032 -33.2840004 9.303460121
rfingers  -90 -7.125020027 -90
rthumb  -92.93752616 -24.25625642 -97.11982154
rfemur  0.8816239834 -0.6574599743 26.04070091
rtibia  -0 0 53.27939987
rfoot  -0 -17.4083004 -9.716420174
rtoes  5.373923086 19.29304026 -105.8922705
lfemur  -60.93349838 -12.0248003 -1.471019983
ltibia  -0 0 52.10779953
lfoot  -0 11.13249969 -19.54850006
ltoes  -4.250644065 -19.5611806 -102.515957
